<svg xmlns="http://www.w3.org/2000/svg" width="87.762" height="38.185" viewBox="0 0 87.762 38.185"><defs><style>.a{fill:#fff;}</style></defs><g transform="translate(0 16.876)"><g transform="translate(69.699 13.813)"><path class="a" d="M121.746,54.742a1.01,1.01,0,0,1,.039-.3,1.349,1.349,0,0,1,.114-.272,1.032,1.032,0,0,1,.408-.408,1.349,1.349,0,0,1,.272-.114,1.18,1.18,0,0,1,.6,0,1.348,1.348,0,0,1,.272.114,1.331,1.331,0,0,1,.233.175,1.051,1.051,0,0,1,.175.233,1.349,1.349,0,0,1,.114.272,1.069,1.069,0,0,1,.039.3,1.01,1.01,0,0,1-.039.3,1.349,1.349,0,0,1-.114.272,1.034,1.034,0,0,1-.408.408,1.349,1.349,0,0,1-.272.114,1.18,1.18,0,0,1-.6,0,1.349,1.349,0,0,1-.272-.114,1.331,1.331,0,0,1-.233-.175,1.051,1.051,0,0,1-.175-.233,1.349,1.349,0,0,1-.114-.272A1.486,1.486,0,0,1,121.746,54.742Zm.155,0a1.206,1.206,0,0,0,.029.272,1.06,1.06,0,0,0,.1.243.814.814,0,0,0,.155.2.975.975,0,0,0,.194.155.841.841,0,0,0,.233.1,1.229,1.229,0,0,0,.262.039.962.962,0,0,0,.687-.291,1.086,1.086,0,0,0,.214-.321,1.065,1.065,0,0,0,.078-.389.828.828,0,0,0-.039-.272,1.061,1.061,0,0,0-.1-.243.815.815,0,0,0-.155-.2,1,1,0,0,0-.194-.155.841.841,0,0,0-.233-.1,1.23,1.23,0,0,0-.262-.039.962.962,0,0,0-.687.291.9.9,0,0,0-.2.321A.986.986,0,0,0,121.9,54.742Zm.757.136v.554h-.243v-1.4h.447a.65.65,0,0,1,.4.1.344.344,0,0,1,.127.291.379.379,0,0,1-.088.252.471.471,0,0,1-.243.145.168.168,0,0,1,.049.039c.01.019.029.029.039.057l.35.524h-.233a.079.079,0,0,1-.078-.039l-.311-.476-.029-.029c-.01-.01-.029-.01-.057-.01h-.127Zm0-.175h.175a.593.593,0,0,0,.145-.019.311.311,0,0,0,.1-.049.213.213,0,0,0,.049-.078.34.34,0,0,0,.019-.107.4.4,0,0,0-.019-.107.17.17,0,0,0-.049-.068.184.184,0,0,0-.088-.039.568.568,0,0,0-.136-.01h-.2V54.7Z" transform="translate(-121.746 -53.608)"/></g><path class="a" d="M11.662,32.589a1.079,1.079,0,0,1-.243.262.575.575,0,0,1-.35.1.868.868,0,0,1-.5-.194,7.817,7.817,0,0,0-.68-.427,5.387,5.387,0,0,0-1-.427,4.743,4.743,0,0,0-1.447-.194,4.656,4.656,0,0,0-2,.408A3.835,3.835,0,0,0,3.99,33.3a5.409,5.409,0,0,0-.884,1.874,9.637,9.637,0,0,0-.3,2.467,9.127,9.127,0,0,0,.321,2.534,5.56,5.56,0,0,0,.9,1.865,3.767,3.767,0,0,0,1.418,1.145,4.314,4.314,0,0,0,1.874.4,4.593,4.593,0,0,0,1.632-.243,4.745,4.745,0,0,0,1.068-.534,7.441,7.441,0,0,0,.7-.534.878.878,0,0,1,.554-.243.588.588,0,0,1,.524.262l.767,1.01a5.893,5.893,0,0,1-2.525,1.835,8.843,8.843,0,0,1-3.2.583,6.741,6.741,0,0,1-2.7-.544A6.07,6.07,0,0,1,1.98,43.6,7.508,7.508,0,0,1,.533,41.07,10.171,10.171,0,0,1,0,37.639,10.564,10.564,0,0,1,.484,34.4a7.292,7.292,0,0,1,1.408-2.564,6.3,6.3,0,0,1,2.282-1.68,7.665,7.665,0,0,1,3.117-.6,7.229,7.229,0,0,1,2.874.534A6.912,6.912,0,0,1,12.381,31.6Z" transform="translate(0.003 -29.509)"/><path class="a" d="M26.87,45.493V29.79h1.622a.705.705,0,0,1,.738.572l.194,1.612a7.932,7.932,0,0,1,1.923-1.748,4.46,4.46,0,0,1,2.467-.68,3.626,3.626,0,0,1,2.544.884,4.96,4.96,0,0,1,1.4,2.389,4.97,4.97,0,0,1,.845-1.476,4.7,4.7,0,0,1,1.185-1.02,4.936,4.936,0,0,1,1.4-.593,6.063,6.063,0,0,1,1.505-.184,5.637,5.637,0,0,1,2.175.4A4.313,4.313,0,0,1,46.487,31.1a5.074,5.074,0,0,1,1.02,1.865,8.421,8.421,0,0,1,.35,2.534V45.5H45.137V35.5a4.232,4.232,0,0,0-.8-2.8,2.858,2.858,0,0,0-2.311-.951A3.3,3.3,0,0,0,40.758,32,3.124,3.124,0,0,0,39.7,32.7a3.5,3.5,0,0,0-.728,1.166A4.658,4.658,0,0,0,38.7,35.5v9.993H35.98V35.5a4.435,4.435,0,0,0-.748-2.816,2.627,2.627,0,0,0-2.185-.932,3.41,3.41,0,0,0-1.874.554,6.185,6.185,0,0,0-1.583,1.5V45.5H26.87Z" transform="translate(-11.486 -29.507)"/><path class="a" d="M70.7,50.777V29.763h1.622a.705.705,0,0,1,.738.572L73.3,32.2a8.238,8.238,0,0,1,2.272-1.972,5.763,5.763,0,0,1,2.943-.748A5.647,5.647,0,0,1,80.929,30a4.912,4.912,0,0,1,1.845,1.534,7.448,7.448,0,0,1,1.175,2.515,13.253,13.253,0,0,1,.408,3.457,11.163,11.163,0,0,1-.458,3.234,8.14,8.14,0,0,1-1.311,2.593,6.061,6.061,0,0,1-4.9,2.35A5.861,5.861,0,0,1,75.23,45.2a5.644,5.644,0,0,1-1.8-1.36v6.944H70.7ZM77.6,31.714a4.309,4.309,0,0,0-2.331.622,6.919,6.919,0,0,0-1.845,1.748v7.594a4.33,4.33,0,0,0,1.641,1.438,4.593,4.593,0,0,0,1.991.417,3.9,3.9,0,0,0,3.32-1.563A7.369,7.369,0,0,0,81.541,37.5a10.893,10.893,0,0,0-.272-2.633,5.243,5.243,0,0,0-.767-1.806,3.011,3.011,0,0,0-1.243-1.03A4.113,4.113,0,0,0,77.6,31.714Z" transform="translate(-30.225 -29.479)"/><path class="a" d="M109.939,32.591a1.079,1.079,0,0,1-.243.262.575.575,0,0,1-.35.1.868.868,0,0,1-.5-.194,7.816,7.816,0,0,0-.68-.427,5.426,5.426,0,0,0-1-.427,4.743,4.743,0,0,0-1.447-.194,4.656,4.656,0,0,0-2,.408,3.834,3.834,0,0,0-1.456,1.185,5.409,5.409,0,0,0-.884,1.874,9.637,9.637,0,0,0-.3,2.467,9.127,9.127,0,0,0,.321,2.534,5.56,5.56,0,0,0,.9,1.865,3.767,3.767,0,0,0,1.418,1.145,4.314,4.314,0,0,0,1.874.4,4.593,4.593,0,0,0,1.632-.243,4.745,4.745,0,0,0,1.068-.534,7.517,7.517,0,0,0,.7-.534.877.877,0,0,1,.554-.243.588.588,0,0,1,.524.262l.767,1.01a5.893,5.893,0,0,1-2.525,1.835,8.846,8.846,0,0,1-3.2.583,6.741,6.741,0,0,1-2.7-.544,6.07,6.07,0,0,1-2.166-1.573,7.489,7.489,0,0,1-1.447-2.534,10.373,10.373,0,0,1-.524-3.428,10.564,10.564,0,0,1,.485-3.244,7.292,7.292,0,0,1,1.408-2.564,6.29,6.29,0,0,1,2.282-1.68,7.665,7.665,0,0,1,3.117-.6,7.229,7.229,0,0,1,2.874.534,6.912,6.912,0,0,1,2.214,1.515Z" transform="translate(-42.017 -29.511)"/></g><g transform="translate(69.194)"><g transform="translate(4.428)"><path class="a" d="M128.6,15.664a10.369,10.369,0,0,0,2.71.622c2.156-5.944,4.438-10.517,6.807-13.606C136.8,1.66,135.455.544,134.8,0,132.124,2.554,130.036,7.818,128.6,15.664Z" transform="translate(-128.599)"/></g><g transform="translate(0 6.846)"><path class="a" d="M120.864,17.6a10.5,10.5,0,0,0,3.283,2.671,65.988,65.988,0,0,1,1.515-6.429c-1.3-.728-2.651-1.488-3.36-1.884A14.641,14.641,0,0,0,120.864,17.6Z" transform="translate(-120.864 -11.959)"/></g><g transform="translate(8.42 0.864)"><path class="a" d="M144.438,1.51c-3.079,2.6-6.061,7.786-8.867,15.46a10.451,10.451,0,0,0,8.867-15.46Z" transform="translate(-135.571 -1.51)"/></g></g></svg>