<svg xmlns="http://www.w3.org/2000/svg" width="28.399" height="28.399" viewBox="0 0 28.399 28.399"><defs><style>.a{fill:#fff;fill-rule:evenodd;}</style></defs><path class="a" d="M26.705,19.187a2.871,2.871,0,0,0-1.934,2.888l.03.491-.5-.06a8.06,8.06,0,0,1-4.721-2.326l-.655-.652-.169.481a2.9,2.9,0,0,0,.615,2.968c.4.421.307.481-.377.231a1.178,1.178,0,0,0-.466-.11,3.6,3.6,0,0,0,.357,1.344,3.2,3.2,0,0,0,1.359,1.284l.486.231-.575.01c-.555,0-.575.01-.515.221A3,3,0,0,0,21.5,27.831l.615.21-.535.321a5.562,5.562,0,0,1-2.658.742,2.914,2.914,0,0,0-.814.08,7.578,7.578,0,0,0,1.914.882,8.368,8.368,0,0,0,6.506-.742,8.719,8.719,0,0,0,3.3-3.891,10.343,10.343,0,0,0,.674-3.008c0-.461.03-.522.585-1.073a6.538,6.538,0,0,0,.694-.772c.1-.191.089-.191-.417-.02-.843.3-.962.261-.545-.19A2.923,2.923,0,0,0,31.5,19.3c0-.03-.149.02-.318.11a5.482,5.482,0,0,1-.873.341l-.535.171-.486-.331a4.031,4.031,0,0,0-.843-.441A3.388,3.388,0,0,0,26.705,19.187ZM24.733,38.933a14.2,14.2,0,1,1,14.2-14.2A14.2,14.2,0,0,1,24.733,38.933Z" transform="translate(-10.533 -10.533)"/></svg>