<svg xmlns="http://www.w3.org/2000/svg" width="28.399" height="28.399" viewBox="0 0 28.399 28.399"><defs><style>.a{fill:#fff;}</style></defs><path class="a" d="M34.706,17.318a6.375,6.375,0,0,1,6.375,6.375V34.706a6.375,6.375,0,0,1-6.375,6.375H23.694a6.375,6.375,0,0,1-6.375-6.375V23.694a6.375,6.375,0,0,1,6.375-6.375H34.706m0-2.318H23.694A8.72,8.72,0,0,0,15,23.694V34.706A8.72,8.72,0,0,0,23.694,43.4H34.706A8.72,8.72,0,0,0,43.4,34.706V23.694A8.72,8.72,0,0,0,34.706,15Z" transform="translate(-15 -15)"/><path class="a" d="M86.07,32a1.66,1.66,0,1,0,1.66,1.66A1.66,1.66,0,0,0,86.07,32Z" transform="translate(-64.296 -27.074)"/><path class="a" d="M46.067,40.788a5.123,5.123,0,1,1-5.121,5.122,5.123,5.123,0,0,1,5.121-5.122m0-2.318a7.442,7.442,0,1,0,5.27,2.173,7.442,7.442,0,0,0-5.27-2.173Z" transform="translate(-31.789 -31.669)"/></svg>