<svg xmlns="http://www.w3.org/2000/svg" width="28.399" height="28.399" viewBox="0 0 28.399 28.399"><defs><style>.a{fill:#fff;}</style></defs><path class="a" d="M270.733,213.868v-.03c-.006.01-.014.021-.02.03Z" transform="translate(-255.674 -202.044)"/><path class="a" d="M21.3,7.1A14.2,14.2,0,1,0,35.5,21.3,14.2,14.2,0,0,0,21.3,7.1ZM17.387,26.82h-3.07V17.583h3.07Zm-1.535-10.5h-.021a1.6,1.6,0,1,1,.041-3.193,1.6,1.6,0,1,1-.02,3.193Zm12.608,10.5H25.39V21.878c0-1.241-.445-2.089-1.556-2.089a1.681,1.681,0,0,0-1.576,1.123,2.1,2.1,0,0,0-.1.749V26.82H19.086s.041-8.37,0-9.237h3.071v1.309a3.05,3.05,0,0,1,2.768-1.526c2.021,0,3.536,1.32,3.536,4.157v5.3Z" transform="translate(-7.098 -7.098)"/></svg>