<svg xmlns="http://www.w3.org/2000/svg" width="129.787" height="38.667" viewBox="0 0 129.787 38.667"><defs><style>.a{fill:#fff;}</style></defs><g transform="translate(43.336 10.19)"><path class="a" d="M189.783,446.055l7.553-16.367a.924.924,0,0,1,.884-.63h.051a.927.927,0,0,1,.885.63L206.68,446a.855.855,0,0,1,.1.405.622.622,0,0,1-.632.606.758.758,0,0,1-.656-.506l-2.071-4.546H192.99l-2.07,4.572a.667.667,0,0,1-.631.481.588.588,0,0,1-.606-.555.939.939,0,0,1,.1-.405m13.084-5.278-4.647-10.23-4.673,10.23Z" transform="translate(-189.683 -428.931)"/><path class="a" d="M206.405,444.7a.659.659,0,0,1-.251-.506.667.667,0,0,1,.658-.655.729.729,0,0,1,.429.151,8.225,8.225,0,0,0,5.96,2.3c2.652,0,4.471-1.489,4.471-3.51v-.05c0-1.869-.986-2.955-5-3.763-4.242-.859-5.96-2.3-5.96-4.977v-.051c0-2.628,2.4-4.647,5.682-4.647a8.667,8.667,0,0,1,5.633,1.818.687.687,0,0,1,.278.531.668.668,0,0,1-.656.656.689.689,0,0,1-.43-.151,7.565,7.565,0,0,0-4.875-1.666c-2.6,0-4.318,1.491-4.318,3.333v.05c0,1.869.959,3.005,5.152,3.865,4.092.832,5.807,2.3,5.807,4.875v.049c0,2.854-2.449,4.825-5.859,4.825a10.006,10.006,0,0,1-6.719-2.475" transform="translate(-186.354 -428.943)"/><path class="a" d="M220.42,446.227V429.86a.668.668,0,0,1,.656-.656h11.415a.606.606,0,1,1,0,1.212H221.733v6.946h9.623a.607.607,0,0,1,0,1.214h-9.623v7.1h10.885a.606.606,0,1,1,0,1.213H221.076a.669.669,0,0,1-.656-.658" transform="translate(-183.471 -428.901)"/><path class="a" d="M233.844,438.146V438.1a8.887,8.887,0,0,1,8.84-9.143,9.236,9.236,0,0,1,6.491,2.475.76.76,0,0,1,.251.53.692.692,0,0,1-.68.658.673.673,0,0,1-.454-.177,7.9,7.9,0,0,0-5.633-2.3c-4.242,0-7.451,3.461-7.451,7.906v.051c0,4.469,3.259,7.956,7.476,7.956a7.78,7.78,0,0,0,5.758-2.45.645.645,0,0,1,.456-.2.66.66,0,0,1,.631.632.647.647,0,0,1-.2.454,9.157,9.157,0,0,1-6.693,2.753,8.788,8.788,0,0,1-8.79-9.093" transform="translate(-180.757 -428.952)"/><path class="a" d="M250,429.776a.657.657,0,0,1,1.314,0V437.4h11.314v-7.629a.657.657,0,0,1,1.314,0v16.569a.657.657,0,1,1-1.314,0v-7.728H251.315v7.728a.657.657,0,1,1-1.314,0Z" transform="translate(-177.492 -428.918)"/></g><path class="a" d="M162.563,437.3a4.466,4.466,0,1,0-4.466,4.373,4.419,4.419,0,0,0,4.466-4.373" transform="translate(-153.633 -417.958)"/><path class="a" d="M168.878,438.7a19.968,19.968,0,0,1-2.835,10.408,3.416,3.416,0,0,1-4.667.959,3.262,3.262,0,0,1-.993-4.55c.194-.3,3.931-6.356-.16-14.138a3.272,3.272,0,0,1,1.452-4.449,3.408,3.408,0,0,1,4.543,1.426,22.026,22.026,0,0,1,2.659,10.344" transform="translate(-152.377 -419.245)"/><path class="a" d="M170.809,445.367a4.373,4.373,0,1,0,4.465,4.371,4.418,4.418,0,0,0-4.465-4.371" transform="translate(-151.064 -415.444)"/><path class="a" d="M179.078,437.3a4.465,4.465,0,1,0,4.465-4.37,4.42,4.42,0,0,0-4.465,4.37" transform="translate(-148.49 -417.958)"/><path class="a" d="M170.829,429.219a4.373,4.373,0,1,0-4.463-4.371,4.418,4.418,0,0,0,4.463,4.371" transform="translate(-151.06 -420.475)"/><path class="a" d="M180.265,443.954c0,.05,0,.1-.012.149.007-.049.008-.1.012-.149" transform="translate(-148.253 -415.73)"/><path class="a" d="M180.237,444.229c-.008.042-.013.083-.02.125.007-.042.012-.083.02-.125" transform="translate(-148.26 -415.674)"/><path class="a" d="M180.263,443.678c0,.058,0,.114,0,.169,0-.055,0-.112,0-.169" transform="translate(-148.251 -415.785)"/><path class="a" d="M180.234,443.4c.011.067.019.131.026.2-.007-.066-.016-.131-.026-.2" transform="translate(-148.257 -415.842)"/><path class="a" d="M180.173,443.105c.023.082.042.162.056.243-.014-.081-.034-.161-.056-.243" transform="translate(-148.269 -415.901)"/><path class="a" d="M180.179,444.507c-.008.03-.017.059-.024.089.007-.03.016-.059.024-.089" transform="translate(-148.273 -415.618)"/><path class="a" d="M180.07,444.828l.013-.034-.013.034" transform="translate(-148.29 -415.56)"/><path class="a" d="M180.21,443.179a3.233,3.233,0,0,0-.292-.7c.017.03.031.063.047.095a3.229,3.229,0,0,1,.245.607" transform="translate(-148.32 -416.028)"/><path class="a" d="M178.026,446.258a22.994,22.994,0,0,1-2.35-6.788,22.091,22.091,0,0,0-3.434-.27,23.26,23.26,0,0,0-10.565,2.6,3.268,3.268,0,0,0-1.452,4.447,3.405,3.405,0,0,0,4.54,1.425,15.327,15.327,0,0,1,14.324-.224,3.319,3.319,0,0,1-1.063-1.191" transform="translate(-152.377 -416.691)"/><path class="a" d="M180.17,444.581c-.026.085-.055.172-.089.256.032-.084.063-.168.089-.256" transform="translate(-148.288 -415.603)"/><path class="a" d="M175.967,446.378c-.018-.01-.056-.034-.113-.065a3.431,3.431,0,0,0,3.479.233,3.306,3.306,0,0,0,1.589-1.724,3.379,3.379,0,0,1-.309.585,3.416,3.416,0,0,1-4.646.97" transform="translate(-149.142 -415.554)"/><path class="a" d="M180.161,443.061c.006.017.008.035.014.053-.006-.018-.008-.036-.014-.053" transform="translate(-148.271 -415.91)"/><path class="a" d="M180.221,443.308l.017.107-.017-.107" transform="translate(-148.259 -415.86)"/><path class="a" d="M180.256,443.561c0,.048.007.094.008.141,0-.047,0-.093-.008-.141" transform="translate(-148.252 -415.809)"/><path class="a" d="M180.268,443.819c0,.055,0,.108,0,.162,0-.054,0-.107,0-.162" transform="translate(-148.251 -415.757)"/><path class="a" d="M180.257,444.078c0,.06-.013.121-.023.18.01-.059.018-.118.023-.18" transform="translate(-148.257 -415.705)"/><path class="a" d="M181.779,446.309c0-.047,0-.093-.008-.141-.007-.066-.016-.131-.026-.2,0-.034-.01-.072-.017-.107-.016-.082-.035-.162-.057-.244a.434.434,0,0,0-.014-.053,3.166,3.166,0,0,0-.245-.607c-.016-.032-.03-.065-.047-.095-4.011-7.737-.307-13.741-.113-14.043.037-.058.069-.108.1-.159a3.33,3.33,0,0,1-1.39,1.309,24.152,24.152,0,0,1-6.922,2.3,20.513,20.513,0,0,0-.277,3.365,20.855,20.855,0,0,0,.307,3.557,22.983,22.983,0,0,0,2.35,6.788,3.293,3.293,0,0,0,1.065,1.191l.111.065a3.414,3.414,0,0,0,4.646-.97,3.377,3.377,0,0,0,.309-.585l.013-.034c.034-.084.063-.171.088-.256.008-.029.017-.059.026-.089.017-.068.034-.138.048-.209.007-.042.013-.083.022-.125.01-.06.018-.121.023-.182s.008-.1.012-.149,0-.107,0-.162,0-.112,0-.169" transform="translate(-149.767 -418.416)"/><path class="a" d="M180.224,444.333c-.013.071-.031.141-.049.209.018-.068.036-.137.049-.209" transform="translate(-148.269 -415.653)"/><path class="a" d="M183.89,428.354a3.407,3.407,0,0,0-4.54-1.426c-7.946,4.008-14.127.347-14.439.16-1.556-.982-1.991.331-3,1.85s-2.222,2.7-.662,3.693a16.224,16.224,0,0,0,2.7,1.3,22.013,22.013,0,0,0,11.573,1.168,24.087,24.087,0,0,0,6.921-2.3,3.325,3.325,0,0,0,1.391-1.309c.024-.044.046-.087.063-.126a3.226,3.226,0,0,0,0-3.011" transform="translate(-152.246 -419.245)"/><path class="a" d="M164.958,427.04c-.054-.032-.108-.065-.165-.094s-.1-.048-.151-.072-.091-.041-.138-.06-.12-.047-.184-.067c-.036-.013-.078-.026-.117-.038-.066-.02-.132-.036-.2-.052-.041-.008-.079-.018-.119-.025a1.808,1.808,0,0,0-.2-.033c-.043-.007-.088-.012-.133-.018l-.179-.012c-.049,0-.1,0-.151,0s-.107,0-.161,0-.115.006-.172.012-.1.011-.148.018-.117.017-.174.028l-.15.034c-.055.013-.108.026-.163.042s-.114.037-.171.057-.088.03-.132.048c-.069.026-.138.059-.207.091l-.093.043c-.076.039-.147.082-.219.124l-.071.042c-.067.044-.131.09-.194.138-.026.018-.053.038-.079.059-.051.041-.1.084-.148.129-.034.03-.071.06-.1.093s-.066.071-.1.107-.085.09-.126.139c-.025.031-.049.064-.076.1-.042.055-.084.109-.123.17-.025.036-.048.074-.072.112-.035.055-.067.109-.1.165s-.053.1-.076.151-.043.088-.062.132c-.025.061-.048.121-.07.185a1.123,1.123,0,0,0-.038.113c-.022.064-.039.131-.055.2-.008.036-.018.075-.025.113-.013.064-.025.129-.035.195-.006.042-.012.083-.017.126-.006.059-.008.118-.012.178s0,.1,0,.147,0,.107,0,.16,0,.112.01.167.011.095.019.144.017.115.028.174.023.095.034.143.028.109.046.164.032.107.053.16.034.095.053.141a1.994,1.994,0,0,0,.087.186,3.279,3.279,0,0,0,1.192,1.339c.123.079,1.052,2.99,2.74,3.628,1.159.438,2.984,1,4.448-1.128a22.883,22.883,0,0,0-2.344-6.776,3.307,3.307,0,0,0-1.262-1.314" transform="translate(-152.376 -419.244)"/></svg>