<?xml version="1.0" encoding="UTF-8" standalone="no"?>
<svg
   xmlns:dc="http://purl.org/dc/elements/1.1/"
   xmlns:cc="http://creativecommons.org/ns#"
   xmlns:rdf="http://www.w3.org/1999/02/22-rdf-syntax-ns#"
   xmlns:svg="http://www.w3.org/2000/svg"
   xmlns="http://www.w3.org/2000/svg"
   xmlns:sodipodi="http://sodipodi.sourceforge.net/DTD/sodipodi-0.dtd"
   xmlns:inkscape="http://www.inkscape.org/namespaces/inkscape"
   width="322"
   height="77"
   viewBox="0 0 322 77"
   version="1.1"
   id="svg8"
   sodipodi:docname="santander-empresa.svg"
   inkscape:version="1.0 (4035a4fb49, 2020-05-01)">
  <metadata
     id="metadata12">
    <rdf:RDF>
      <cc:Work
         rdf:about="">
        <dc:format>image/svg+xml</dc:format>
        <dc:type
           rdf:resource="http://purl.org/dc/dcmitype/StillImage" />
        <dc:title />
      </cc:Work>
    </rdf:RDF>
  </metadata>
  <sodipodi:namedview
     inkscape:document-rotation="0"
     pagecolor="#ffffff"
     bordercolor="#666666"
     borderopacity="1"
     objecttolerance="10"
     gridtolerance="10"
     guidetolerance="10"
     inkscape:pageopacity="0"
     inkscape:pageshadow="2"
     inkscape:window-width="1920"
     inkscape:window-height="1051"
     id="namedview10"
     showgrid="false"
     inkscape:zoom="3.4782609"
     inkscape:cx="161"
     inkscape:cy="85.745833"
     inkscape:window-x="-9"
     inkscape:window-y="1341"
     inkscape:window-maximized="1"
     inkscape:current-layer="svg8" />
  <defs
     id="defs4">
    <style
       id="style2">.a{fill:#fff;}</style>
    <style
       id="style2400">.a{fill:#cb232a;}</style>
  </defs>
  <rect
     y="0.28749993"
     x="0.28749993"
     height="77.337502"
     width="322"
     id="rect2396"
     style="fill:#ffffff;fill-opacity:1" />
  <path
     id="path2404"
     d="M 217.4425,53.018 V 35.861 a 13.185,13.185 0 0 1 4.192,-0.7 c 4.217,0 6.2,2.355 6.2,6.6 0,4.315 -2.132,6.8 -6.108,6.8 a 7.261,7.261 0 0 1 -2.612,-0.422 v 4.884 z m 1.677,-16.017 v 9.669 a 7.749,7.749 0 0 0 2.516,0.4 c 2.947,0 4.5,-1.86 4.5,-5.207 0,-3.249 -1.414,-5.157 -4.6,-5.157 a 10.755,10.755 0 0 0 -2.417,0.295 z m -179.146,4.938 c 0,-2.842 2.953,-5.3 7.228,-6.453 a 5.877,5.877 0 0 0 0.735,3.112 l 3.993,7.161 a 5.817,5.817 0 0 1 0.632,1.729 l 0.167,-0.3 a 5.9,5.9 0 0 0 0,-5.727 l -3.2,-5.745 a 5.9,5.9 0 0 1 0.01,-5.711 l 0.166,-0.3 a 5.889,5.889 0 0 0 0.632,1.732 l 1.868,3.348 2.926,5.245 a 5.823,5.823 0 0 1 0.632,1.73 l 0.167,-0.3 a 5.907,5.907 0 0 0 0,-5.728 l -3.2,-5.728 a 5.9,5.9 0 0 1 0,-5.727 l 0.167,-0.3 a 5.876,5.876 0 0 0 0.631,1.731 l 3.994,7.159 a 5.848,5.848 0 0 1 0.736,2.615 c 4.275,1.156 7.226,3.61 7.226,6.453 0,3.954 -5.71,7.159 -12.754,7.159 -7.044,0 -12.756,-3.201 -12.756,-7.155 z m 30.327,5.771 a 8.557,8.557 0 0 1 0.454,-2.506 10.852,10.852 0 0 0 4.384,0.968 c 2.228,0 3.474,-0.744 3.474,-2.207 0,-1.438 -0.91,-2.109 -3.163,-3.124 l -1.221,-0.545 c -2.253,-1.017 -3.786,-2.33 -3.786,-4.96 0,-2.826 1.894,-4.635 5.774,-4.635 a 12.719,12.719 0 0 1 4.384,0.718 9.827,9.827 0 0 1 -0.48,2.479 11.764,11.764 0 0 0 -3.928,-0.718 c -2.084,0 -3.042,0.843 -3.042,2.156 0,1.29 0.934,2.034 2.611,2.778 l 1.294,0.569 c 3.042,1.339 4.313,2.754 4.313,5.157 0,2.851 -2.086,4.811 -6.158,4.811 a 11.194,11.194 0 0 1 -4.91,-0.941 z m 202.983,-0.123 a 5.141,5.141 0 0 1 0.24,-1.512 8.124,8.124 0 0 0 3.9,0.967 c 1.845,0 2.97,-0.6 2.97,-2.009 0,-1.488 -1.317,-2.007 -2.467,-2.379 l -1.1,-0.349 c -2.131,-0.669 -3.305,-1.785 -3.305,-3.767 0,-2.207 1.628,-3.373 4.337,-3.373 a 10.141,10.141 0 0 1 3.785,0.645 7.039,7.039 0 0 1 -0.239,1.462 9.916,9.916 0 0 0 -3.5,-0.619 c -1.843,0 -2.778,0.619 -2.778,1.835 0,1.388 0.936,1.81 2.419,2.329 l 1.126,0.4 c 1.894,0.669 3.355,1.612 3.355,3.768 0,2.256 -1.677,3.572 -4.552,3.572 a 8.063,8.063 0 0 1 -4.191,-0.97 z m -13.031,-5.628 c 0,-4.365 2.083,-6.794 6.372,-6.794 a 10.54,10.54 0 0 1 4,0.7 v 12.4 h -1.558 l -0.047,-0.967 a 4.763,4.763 0 0 1 -3.259,1.266 c -3.4,-0.008 -5.508,-2.364 -5.508,-6.605 z m 1.7,0 c 0,3.2 1.341,5.159 3.953,5.159 a 4.15,4.15 0 0 0 3.041,-1.266 v -8.851 a 8.514,8.514 0 0 0 -2.322,-0.3 c -3.21,0.002 -4.671,1.935 -4.671,5.258 z m -12.1,5.628 a 5.111,5.111 0 0 1 0.239,-1.512 8.131,8.131 0 0 0 3.9,0.967 c 1.845,0 2.97,-0.6 2.97,-2.009 0,-1.488 -1.319,-2.007 -2.467,-2.379 l -1.1,-0.349 c -2.133,-0.669 -3.306,-1.785 -3.306,-3.767 0,-2.207 1.628,-3.373 4.336,-3.373 a 10.137,10.137 0 0 1 3.785,0.645 6.876,6.876 0 0 1 -0.236,1.463 9.907,9.907 0 0 0 -3.5,-0.619 c -1.845,0 -2.778,0.619 -2.778,1.835 0,1.388 0.933,1.81 2.419,2.329 l 1.126,0.4 c 1.891,0.669 3.352,1.612 3.352,3.768 0,2.256 -1.675,3.572 -4.551,3.572 a 8.061,8.061 0 0 1 -4.186,-0.971 z m -12.7,-5.8 c 0,-3.7 1.606,-6.621 5.534,-6.621 3.594,0 5.125,2.554 5.125,5.752 a 11.006,11.006 0 0 1 -0.094,1.538 h -8.866 c 0.217,2.974 1.726,4.562 4.456,4.562 a 7.912,7.912 0 0 0 4.025,-1.066 16.664,16.664 0 0 1 -0.264,1.661 7.1,7.1 0 0 1 -3.808,0.943 c -3.994,0 -6.102,-2.507 -6.102,-6.77 z m 1.7,-0.894 h 7.284 v -0.1 c 0,-2.456 -1.151,-4.116 -3.522,-4.116 -2.389,0.003 -3.562,1.637 -3.756,4.215 z m -80.679,0.891 c 0,-3.694 1.653,-6.619 5.847,-6.619 3.76,0 5.389,2.554 5.389,5.677 a 14.942,14.942 0 0 1 -0.144,2.109 h -8.408 c 0.335,2.207 1.58,3.273 3.928,3.273 a 9.986,9.986 0 0 0 4.217,-0.943 c -0.1,0.718 -0.239,1.661 -0.408,2.479 a 8.794,8.794 0 0 1 -3.881,0.793 c -4.401,-10e-4 -6.533,-2.529 -6.533,-6.773 z m 2.636,-1.116 h 5.941 c 0,-2.033 -1.053,-3.224 -2.875,-3.224 -1.862,-0.001 -2.844,1.115 -3.06,3.224 z m -16.053,1.339 c 0,-4.363 2.253,-6.843 6.686,-6.843 a 9.922,9.922 0 0 1 1.963,0.2 V 31.27 a 7.756,7.756 0 0 1 2.612,-0.372 v 17.356 h -2.42 l -0.144,-1.585 a 3.6,3.6 0 0 1 -3.425,1.883 c -3.155,0 -5.266,-2.379 -5.266,-6.545 z m 2.684,0 c 0,2.529 0.981,4.313 3.33,4.313 a 4.136,4.136 0 0 0 2.635,-0.941 v -7.637 a 10.186,10.186 0 0 0 -2.108,-0.249 c -2.605,0 -3.85,1.687 -3.85,4.514 z m -29.493,0 c 0,-4.363 2.252,-6.843 6.683,-6.843 a 12.994,12.994 0 0 1 4.528,0.694 v 12.4 h -2.42 l -0.143,-1.487 a 3.648,3.648 0 0 1 -3.379,1.784 c -3.154,-0.003 -5.262,-2.382 -5.262,-6.548 z m 2.682,0 c 0,2.529 0.984,4.313 3.331,4.313 a 4.038,4.038 0 0 0 2.563,-0.891 v -7.786 a 10.421,10.421 0 0 0 -1.892,-0.15 c -2.725,0 -3.996,1.737 -3.996,4.514 z m -10.272,2.306 V 31.295 a 8.863,8.863 0 0 1 2.636,-0.4 v 4.685 h 4.169 a 22.036,22.036 0 0 1 -0.239,2.332 h -3.93 v 6.076 c 0,1.611 0.767,2.232 2.036,2.232 a 5.821,5.821 0 0 0 2.061,-0.372 c -0.073,0.744 -0.167,1.585 -0.312,2.306 a 5.792,5.792 0 0 1 -2.228,0.4 c -2.562,-0.002 -4.193,-1.215 -4.193,-4.241 z m -27.336,-2.306 c 0,-4.363 2.253,-6.843 6.683,-6.843 a 13,13 0 0 1 4.529,0.694 v 12.4 h -2.419 l -0.141,-1.49 a 3.644,3.644 0 0 1 -3.378,1.784 c -3.166,0 -5.274,-2.379 -5.274,-6.545 z m 2.684,0 c 0,2.529 0.982,4.313 3.329,4.313 a 4.043,4.043 0 0 0 2.564,-0.891 v -7.786 a 10.426,10.426 0 0 0 -1.894,-0.15 c -2.731,0 -3.999,1.737 -3.999,4.514 z m 144.746,6.25 v -12.4 a 13.391,13.391 0 0 1 3.977,-0.645 16.416,16.416 0 0 1 2.06,0.1 6.279,6.279 0 0 1 -0.169,1.488 13.836,13.836 0 0 0 -1.843,-0.1 11.5,11.5 0 0 0 -2.348,0.273 v 11.28 z m -17.8,0 V 40.15 c 0,-2.257 -1.056,-3.446 -3.523,-3.446 a 7.878,7.878 0 0 0 -3.186,0.72 6.481,6.481 0 0 1 0.408,2.454 v 8.38 h -1.677 V 40.1 c 0,-2.4 -0.959,-3.4 -3.522,-3.4 a 12.725,12.725 0 0 0 -2.874,0.348 v 11.209 h -1.678 v -12.4 a 17.614,17.614 0 0 1 4.719,-0.7 5.647,5.647 0 0 1 3.762,1.041 9.55,9.55 0 0 1 4.192,-1.041 c 3.617,0 5.055,1.711 5.055,4.711 v 8.38 z m -28.27,0 V 31.1 h 9.535 a 13.421,13.421 0 0 1 -0.192,1.661 h -7.665 v 6.026 h 6.946 a 13.3,13.3 0 0 1 -0.191,1.66 h -6.755 v 6.15 h 8.072 a 13.833,13.833 0 0 1 -0.191,1.661 z m -12.69,0 v -12.4 a 15.517,15.517 0 0 1 4.5,-0.694 20.771,20.771 0 0 1 2.3,0.1 10.445,10.445 0 0 1 -0.239,2.332 16.4,16.4 0 0 0 -1.988,-0.1 12.659,12.659 0 0 0 -1.941,0.15 v 10.609 z m -31.673,0 v -7.86 c 0,-1.959 -0.625,-2.9 -3.259,-2.9 a 12.731,12.731 0 0 0 -2.084,0.2 v 10.557 h -2.634 v -12.4 a 21.7,21.7 0 0 1 4.791,-0.694 c 4.408,0 5.822,1.76 5.822,4.76 v 8.33 z m -34.933,0 v -7.86 c 0,-1.959 -0.623,-2.9 -3.258,-2.9 a 12.72,12.72 0 0 0 -2.084,0.2 v 10.557 h -2.635 v -12.4 a 21.707,21.707 0 0 1 4.792,-0.694 c 4.408,0 5.821,1.76 5.821,4.76 v 8.33 z"
     class="a" />
</svg>
