<?xml version="1.0" encoding="UTF-8" standalone="no"?>
<svg
   xmlns:dc="http://purl.org/dc/elements/1.1/"
   xmlns:cc="http://creativecommons.org/ns#"
   xmlns:rdf="http://www.w3.org/1999/02/22-rdf-syntax-ns#"
   xmlns:svg="http://www.w3.org/2000/svg"
   xmlns="http://www.w3.org/2000/svg"
   xmlns:sodipodi="http://sodipodi.sourceforge.net/DTD/sodipodi-0.dtd"
   xmlns:inkscape="http://www.inkscape.org/namespaces/inkscape"
   inkscape:version="1.0 (4035a4fb49, 2020-05-01)"
   sodipodi:docname="santander.svg"
   id="svg8"
   version="1.1"
   viewBox="0 0 242.055 29.038"
   height="29.038"
   width="242.055">
  <metadata
     id="metadata12">
    <rdf:RDF>
      <cc:Work
         rdf:about="">
        <dc:format>image/svg+xml</dc:format>
        <dc:type
           rdf:resource="http://purl.org/dc/dcmitype/StillImage" />
      </cc:Work>
    </rdf:RDF>
  </metadata>
  <sodipodi:namedview
     inkscape:current-layer="svg8"
     inkscape:window-maximized="1"
     inkscape:window-y="-9"
     inkscape:window-x="-9"
     inkscape:cy="14.519"
     inkscape:cx="121.0275"
     inkscape:zoom="4.6270477"
     showgrid="false"
     id="namedview10"
     inkscape:window-height="1321"
     inkscape:window-width="2400"
     inkscape:pageshadow="2"
     inkscape:pageopacity="0"
     guidetolerance="10"
     gridtolerance="10"
     objecttolerance="10"
     borderopacity="1"
     bordercolor="#666666"
     pagecolor="#ffffff" />
  <defs
     id="defs4">
    <style
       id="style2">.a{fill:#cb232a;}</style>
  </defs>
  <path
     style="fill:#ffffff"
     id="path6"
     transform="translate(0 0)"
     d="M177.469,29.038V11.881a13.185,13.185,0,0,1,4.192-.7c4.217,0,6.2,2.355,6.2,6.6,0,4.315-2.132,6.8-6.108,6.8a7.261,7.261,0,0,1-2.612-.422v4.884Zm1.677-16.017V22.69a7.749,7.749,0,0,0,2.516.4c2.947,0,4.5-1.86,4.5-5.207,0-3.249-1.414-5.157-4.6-5.157A10.755,10.755,0,0,0,179.145,13.021ZM0,17.959c0-2.842,2.953-5.3,7.228-6.453a5.877,5.877,0,0,0,.735,3.112l3.993,7.161a5.817,5.817,0,0,1,.632,1.729l.167-.3a5.9,5.9,0,0,0,0-5.727l-3.2-5.745a5.9,5.9,0,0,1,.01-5.711l.166-.3a5.889,5.889,0,0,0,.632,1.732l1.868,3.348,2.926,5.245a5.823,5.823,0,0,1,.632,1.73l.167-.3a5.907,5.907,0,0,0,0-5.728l-3.2-5.728a5.9,5.9,0,0,1,0-5.727l.167-.3a5.876,5.876,0,0,0,.631,1.731l3.994,7.159a5.848,5.848,0,0,1,.736,2.615c4.275,1.156,7.226,3.61,7.226,6.453,0,3.954-5.71,7.159-12.754,7.159S0,21.913,0,17.959ZM30.327,23.73a8.557,8.557,0,0,1,.454-2.506,10.852,10.852,0,0,0,4.384.968c2.228,0,3.474-.744,3.474-2.207,0-1.438-.91-2.109-3.163-3.124l-1.221-.545c-2.253-1.017-3.786-2.33-3.786-4.96,0-2.826,1.894-4.635,5.774-4.635a12.719,12.719,0,0,1,4.384.718,9.827,9.827,0,0,1-.48,2.479A11.764,11.764,0,0,0,36.219,9.2c-2.084,0-3.042.843-3.042,2.156,0,1.29.934,2.034,2.611,2.778l1.294.569c3.042,1.339,4.313,2.754,4.313,5.157,0,2.851-2.086,4.811-6.158,4.811A11.194,11.194,0,0,1,30.327,23.73Zm202.983-.123a5.141,5.141,0,0,1,.24-1.512,8.124,8.124,0,0,0,3.9.967c1.845,0,2.97-.6,2.97-2.009,0-1.488-1.317-2.007-2.467-2.379l-1.1-.349c-2.131-.669-3.305-1.785-3.305-3.767,0-2.207,1.628-3.373,4.337-3.373a10.141,10.141,0,0,1,3.785.645,7.039,7.039,0,0,1-.239,1.462,9.916,9.916,0,0,0-3.5-.619c-1.843,0-2.778.619-2.778,1.835,0,1.388.936,1.81,2.419,2.329l1.126.4c1.894.669,3.355,1.612,3.355,3.768,0,2.256-1.677,3.572-4.552,3.572A8.063,8.063,0,0,1,233.31,23.607Zm-13.031-5.628c0-4.365,2.083-6.794,6.372-6.794a10.54,10.54,0,0,1,4,.7v12.4h-1.558l-.047-.967a4.763,4.763,0,0,1-3.259,1.266C222.387,24.576,220.279,22.22,220.279,17.979Zm1.7,0c0,3.2,1.341,5.159,3.953,5.159a4.15,4.15,0,0,0,3.041-1.266V13.021a8.514,8.514,0,0,0-2.322-.3C223.441,12.723,221.98,14.656,221.98,17.979Zm-12.1,5.628a5.111,5.111,0,0,1,.239-1.512,8.131,8.131,0,0,0,3.9.967c1.845,0,2.97-.6,2.97-2.009,0-1.488-1.319-2.007-2.467-2.379l-1.1-.349c-2.133-.669-3.306-1.785-3.306-3.767,0-2.207,1.628-3.373,4.336-3.373a10.137,10.137,0,0,1,3.785.645A6.876,6.876,0,0,1,218,13.293a9.907,9.907,0,0,0-3.5-.619c-1.845,0-2.778.619-2.778,1.835,0,1.388.933,1.81,2.419,2.329l1.126.4c1.891.669,3.352,1.612,3.352,3.768,0,2.256-1.675,3.572-4.551,3.572A8.061,8.061,0,0,1,209.882,23.607Zm-12.7-5.8c0-3.7,1.606-6.621,5.534-6.621,3.594,0,5.125,2.554,5.125,5.752a11.006,11.006,0,0,1-.094,1.538h-8.866c.217,2.974,1.726,4.562,4.456,4.562a7.912,7.912,0,0,0,4.025-1.066,16.664,16.664,0,0,1-.264,1.661,7.1,7.1,0,0,1-3.808.943C199.293,24.576,197.185,22.069,197.185,17.806Zm1.7-.894h7.284v-.1c0-2.456-1.151-4.116-3.522-4.116C200.252,12.7,199.079,14.334,198.885,16.912Zm-80.679.891c0-3.694,1.653-6.619,5.847-6.619,3.76,0,5.389,2.554,5.389,5.677a14.942,14.942,0,0,1-.144,2.109h-8.408c.335,2.207,1.58,3.273,3.928,3.273a9.986,9.986,0,0,0,4.217-.943c-.1.718-.239,1.661-.408,2.479a8.794,8.794,0,0,1-3.881.793C120.339,24.572,118.207,22.044,118.207,17.8Zm2.636-1.116h5.941c0-2.033-1.053-3.224-2.875-3.224C122.04,13.463,121.058,14.579,120.842,16.688Zm-16.053,1.339c0-4.363,2.253-6.843,6.686-6.843a9.922,9.922,0,0,1,1.963.2V7.29a7.756,7.756,0,0,1,2.612-.372V24.274h-2.42l-.144-1.585a3.6,3.6,0,0,1-3.425,1.883C106.9,24.572,104.789,22.193,104.789,18.027Zm2.684,0c0,2.529.981,4.313,3.33,4.313a4.136,4.136,0,0,0,2.635-.941V13.762a10.186,10.186,0,0,0-2.108-.249C108.719,13.513,107.474,15.2,107.474,18.027Zm-29.493,0c0-4.363,2.252-6.843,6.683-6.843a12.994,12.994,0,0,1,4.528.694v12.4h-2.42l-.143-1.487a3.648,3.648,0,0,1-3.379,1.784C80.089,24.572,77.981,22.193,77.981,18.027Zm2.682,0c0,2.529.984,4.313,3.331,4.313a4.038,4.038,0,0,0,2.563-.891V13.663a10.421,10.421,0,0,0-1.892-.15C81.933,13.513,80.662,15.25,80.662,18.027ZM70.384,20.333V7.315a8.863,8.863,0,0,1,2.636-.4V11.6h4.169a22.036,22.036,0,0,1-.239,2.332H73.02v6.076c0,1.611.767,2.232,2.036,2.232a5.821,5.821,0,0,0,2.061-.372c-.073.744-.167,1.585-.312,2.306a5.792,5.792,0,0,1-2.228.4C72.015,24.572,70.384,23.359,70.384,20.333ZM43.048,18.027c0-4.363,2.253-6.843,6.683-6.843a13,13,0,0,1,4.529.694v12.4H51.841L51.7,22.788a3.644,3.644,0,0,1-3.378,1.784C45.156,24.572,43.048,22.193,43.048,18.027Zm2.684,0c0,2.529.982,4.313,3.329,4.313a4.043,4.043,0,0,0,2.564-.891V13.663a10.426,10.426,0,0,0-1.894-.15C47,13.513,45.732,15.25,45.732,18.027Zm144.746,6.25v-12.4a13.391,13.391,0,0,1,3.977-.645,16.416,16.416,0,0,1,2.06.1,6.279,6.279,0,0,1-.169,1.488,13.836,13.836,0,0,0-1.843-.1,11.5,11.5,0,0,0-2.348.273v11.28Zm-17.8,0V16.17c0-2.257-1.056-3.446-3.523-3.446a7.878,7.878,0,0,0-3.186.72,6.481,6.481,0,0,1,.408,2.454v8.38H164.7V16.12c0-2.4-.959-3.4-3.522-3.4a12.725,12.725,0,0,0-2.874.348V24.277h-1.678v-12.4a17.614,17.614,0,0,1,4.719-.7,5.647,5.647,0,0,1,3.762,1.041,9.55,9.55,0,0,1,4.192-1.041c3.617,0,5.055,1.711,5.055,4.711v8.38Zm-28.27,0V7.12h9.535a13.421,13.421,0,0,1-.192,1.661h-7.665v6.026h6.946a13.3,13.3,0,0,1-.191,1.66h-6.755v6.15h8.072a13.833,13.833,0,0,1-.191,1.661Zm-12.69,0v-12.4a15.517,15.517,0,0,1,4.5-.694,20.771,20.771,0,0,1,2.3.1,10.445,10.445,0,0,1-.239,2.332,16.4,16.4,0,0,0-1.988-.1,12.659,12.659,0,0,0-1.941.15V24.274Zm-31.673,0v-7.86c0-1.959-.625-2.9-3.259-2.9a12.731,12.731,0,0,0-2.084.2V24.274H92.068v-12.4a21.7,21.7,0,0,1,4.791-.694c4.408,0,5.822,1.76,5.822,4.76v8.33Zm-34.933,0v-7.86c0-1.959-.623-2.9-3.258-2.9a12.72,12.72,0,0,0-2.084.2V24.274H57.135v-12.4a21.707,21.707,0,0,1,4.792-.694c4.408,0,5.821,1.76,5.821,4.76v8.33Z"
     class="a" />
</svg>
