<?xml version="1.0" encoding="UTF-8" standalone="no"?>
<svg
   xmlns:dc="http://purl.org/dc/elements/1.1/"
   xmlns:cc="http://creativecommons.org/ns#"
   xmlns:rdf="http://www.w3.org/1999/02/22-rdf-syntax-ns#"
   xmlns:svg="http://www.w3.org/2000/svg"
   xmlns="http://www.w3.org/2000/svg"
   xmlns:sodipodi="http://sodipodi.sourceforge.net/DTD/sodipodi-0.dtd"
   xmlns:inkscape="http://www.inkscape.org/namespaces/inkscape"
   inkscape:version="1.0 (4035a4fb49, 2020-05-01)"
   sodipodi:docname="Walmart_Chile_Logo_1.svg"
   id="svg44"
   version="1.1"
   width="895.20343"
   height="163.62756">
  <metadata
     id="metadata50">
    <rdf:RDF>
      <cc:Work
         rdf:about="">
        <dc:format>image/svg+xml</dc:format>
        <dc:type
           rdf:resource="http://purl.org/dc/dcmitype/StillImage" />
        <dc:title></dc:title>
      </cc:Work>
    </rdf:RDF>
  </metadata>
  <defs
     id="defs48" />
  <sodipodi:namedview
     inkscape:current-layer="svg44"
     inkscape:window-maximized="1"
     inkscape:window-y="-9"
     inkscape:window-x="-9"
     inkscape:cy="67.621623"
     inkscape:cx="327.43511"
     inkscape:zoom="1.6470588"
     fit-margin-bottom="0"
     fit-margin-right="0"
     fit-margin-left="0"
     fit-margin-top="0"
     showgrid="false"
     id="namedview46"
     inkscape:window-height="1321"
     inkscape:window-width="2400"
     inkscape:pageshadow="2"
     inkscape:pageopacity="0"
     guidetolerance="10"
     gridtolerance="10"
     objecttolerance="10"
     borderopacity="1"
     bordercolor="#666666"
     pagecolor="#ffffff" />
  <g
     style="fill:#ffffff"
     transform="translate(-8.50883,-0.32632755)"
     id="g30"
     fill="#fdbb30">
    <path
       style="fill:#ffffff"
       id="path18"
       d="m 614.37051,51.604214 c -0.50112,3.170154 -10.49092,6.846879 -14.32016,0.168857 l -3.9981,-43.243733 c -0.33227,-1.503372 -0.16886,-8.181394 10.99204,-8.181394 0,0 10.65434,-0.833391 11.15546,7.849127 z" />
    <path
       style="fill:#ffffff"
       id="path20"
       d="m 599.93378,112.67598 c 0.50112,-3.17015 10.49637,-6.84143 14.32561,-0.16341 l 3.9872,43.24373 c 0.33772,1.49793 0.17975,8.17595 -10.9866,8.17595 0,0 -10.65433,0.83339 -11.15545,-7.84368 z" />
    <path
       style="fill:#ffffff"
       id="path22"
       d="m 583.90054,61.048767 c 2.48928,2.020837 0.66998,12.5281 -7.01574,12.517206 L 537.53568,55.416569 c -1.46525,-0.462995 -7.15192,-3.949075 -1.57419,-13.633841 0,0 4.60816,-9.673872 12.3538,-5.762926 z" />
    <path
       style="fill:#ffffff"
       id="path24"
       d="m 629.64771,104.17811 c -2.48928,-2.02084 -0.66998,-12.533547 7.01574,-12.517206 l 39.35457,18.149406 c 1.4598,0.46299 7.15191,3.94363 1.56874,13.63384 0,0 -4.60817,9.66842 -12.3538,5.76292 z" />
    <path
       style="fill:#ffffff"
       id="path26"
       d="m 576.57106,90.906498 c 2.9904,-1.149317 11.1609,5.681221 7.30987,12.348352 l -35.35647,25.09433 c -1.12753,1.04037 -6.9885,4.23231 -12.56623,-5.45245 0,0 -6.04617,-8.84048 1.20378,-13.61205 z" />
    <path
       style="fill:#ffffff"
       id="path28"
       d="m 636.97774,73.437424 c -2.9904,1.154764 -11.1609,-5.681221 -7.30987,-12.353796 l 35.35647,-25.088882 c 1.13298,-1.040377 6.9885,-4.232319 12.56623,5.452447 0,0 6.04617,8.840481 -1.19834,13.612053 z" />
  </g>
  <g
     style="fill:#ffffff"
     transform="translate(394.6567,-98.900388)"
     id="g42"
     fill="#007dc3">
    <path
       style="fill:#ffffff"
       id="path32"
       d="m 365.16972,220.40838 c -3.1756,1.5415 -8.0779,2.54375 -12.9911,2.54375 -14.80494,0 -23.43844,-9.5377 -23.43844,-24.62589 0,-16.07954 9.54315,-25.25229 23.89599,-25.25229 5.0875,0 9.35795,1.0894 12.26665,2.5383 l 1.99905,-6.4438 c -2.09165,-1.0894 -6.9994,-2.7235 -14.54349,-2.7235 -18.97735,0 -31.97389,12.8985 -31.97389,32.15909 0,20.16479 12.89849,31.06969 30.16003,31.06969 7.4515,0 13.3615,-1.45435 16.17215,-2.9087 z" />
    <path
       style="fill:#ffffff"
       id="path34"
       d="m 375.27717,228.6742 h 8.00164 v -26.52689 c 0,-1.4598 0.0872,-2.63635 0.53926,-3.81835 1.55239,-4.265 5.54504,-7.89815 10.72514,-7.89815 7.54409,0 10.17499,5.8991 10.17499,12.98565 v 25.25774 h 7.9962 v -26.16739 c 0,-15.07729 -9.45054,-18.71589 -15.35509,-18.71589 -2.99585,0 -5.8174,0.81705 -8.17595,2.18425 -2.45115,1.36175 -4.45565,3.44795 -5.7248,5.72479 h -0.17975 v -27.53458 h -8.00164 z" />
    <path
       style="fill:#ffffff"
       id="path36"
       d="m 428.53903,167.43848 c -2.99585,0 -4.9949,2.2714 -4.9949,4.9949 0,2.72895 1.9119,4.90775 4.8206,4.90775 3.1756,0 5.0766,-2.1788 5.0766,-4.90775 0,-2.8161 -1.9936,-4.9949 -4.9023,-4.9949 m 4.00354,17.26154 h -7.99619 v 43.97363 h 7.99619 z" />
    <path
       style="fill:#ffffff"
       id="path38"
       d="m 444.64962,228.67692 h 7.99619 V 164.1681 h -7.99619 z" />
    <path
       style="fill:#ffffff"
       id="path40"
       d="m 469.4716,202.41803 c 0.63185,-5.54505 4.0907,-12.90394 12.2612,-12.90394 8.99844,0 11.17724,7.90359 11.08464,12.90394 z m 30.79734,5.7248 c 0.1852,-0.90965 0.27779,-2.09165 0.27779,-3.72575 0,-8.0888 -3.72574,-20.62234 -18.17663,-20.62234 -12.8059,0 -20.62235,10.35474 -20.62235,23.61819 0,13.26889 8.08335,22.25644 21.63004,22.25644 6.9885,0 11.8908,-1.5415 14.71235,-2.8161 l -1.4489,-5.7139 c -2.91415,1.2637 -6.4547,2.26595 -12.1795,2.26595 -8.08334,0 -14.89754,-4.4502 -15.08274,-15.26249 z" />
  </g>
  <g
     transform="translate(-0.008829,0.28081245)"
     style="fill:#ffffff"
     id="g16"
     fill="#007dc3">
    <path
       style="fill:#ffffff"
       id="path2"
       d="M 21.328387,34.853599 H 0.008829 l 20.31731,83.148451 c 0,0 1.661335,17.69186 24.309961,11.67837 L 61.625293,57.888962 72.617339,115.65984 c 0,0 2.336763,20.70405 24.979942,14.02058 L 122.91494,34.853599 H 102.59763 L 87.93975,106.49254 72.949606,34.853599 H 51.967762 L 35.310836,106.64506 Z" />
    <path
       style="fill:#ffffff"
       id="path4"
       d="m 127.57648,75.589534 -3.66583,-12.686063 c 0,0 52.45461,-23.378524 55.96248,20.704047 0,0 0.37039,43.243732 2.04262,46.250472 0,0 -13.54669,4.89686 -19.64733,-7.56588 0,0 -0.0109,0.0163 -0.0218,0.0272 0.29959,2.64179 -24.54962,20.41535 -40.03,-0.25056 0,0 -20.67136,-36.484011 37.9438,-39.158488 0,0 2.05352,-22.681308 -32.58395,-7.320768 m 33.36287,32.240796 -0.0545,-12.538997 c -30.90627,0.522912 -21.31955,17.697307 -21.31955,17.697307 8.99844,12.02153 21.37402,-2.15157 21.37402,-5.15831" />
    <path
       style="fill:#ffffff"
       id="path6"
       d="M 212.84164,129.35088 H 193.52658 V 34.180895 h 19.31506 z" />
    <path
       style="fill:#ffffff"
       id="path8"
       d="M 245.6974,129.68151 H 226.05552 V 58.54369 h 18.88475 v 9.793706 c 0.55559,-2.391233 9.51591,-11.209926 20.36633,-11.128221 9.26535,0 14.72324,3.289988 20.36633,12.479077 0.0599,0.09805 8.03433,-12.811344 22.18563,-12.479077 10.5454,0 22.30547,5.675774 25.02352,23.808837 V 129.68696 H 313.4145 V 86.023805 c 0,0 -0.1743,-13.12727 -12.88215,-12.457289 0,0 -10.48003,0.664534 -11.15001,12.457289 v 43.663155 h -19.69635 l 0.0545,-43.663155 c 0,0 -0.66454,-12.751427 -12.20673,-12.566229 -6.87956,0.10894 -11.84722,6.422013 -11.87446,12.620699 z" />
    <path
       style="fill:#ffffff"
       id="path10"
       d="m 349.95134,75.589534 -3.66583,-12.686063 c 0,0 52.46006,-23.378524 55.96248,20.704047 0,0 0.37584,43.243732 2.04262,46.250472 0,0 -13.54124,4.89686 -19.64188,-7.56588 0,0 -0.0109,0.0163 -0.0272,0.0272 0.30503,2.64179 -24.54963,20.41535 -40.03001,-0.25056 0,0 -20.67136,-36.484011 37.94925,-39.158488 0,0 2.04807,-22.681308 -32.5894,-7.320768 m 33.36287,32.240796 -0.0599,-12.538997 c -30.89539,0.522912 -21.30867,17.697307 -21.30867,17.697307 8.98755,12.02153 21.36858,-2.15157 21.36858,-5.15831" />
    <path
       style="fill:#ffffff"
       id="path12"
       d="m 415.2941,58.439654 v 71.252206 h 19.65278 V 90.364521 c 0,0 1.62865,-18.46533 21.98409,-14.238458 V 57.208632 c 0,0 -17.90974,-2.440256 -23.7925,14.913886 l 0.005,-13.682864 h -17.84982 z" />
    <path
       style="fill:#ffffff"
       id="path14"
       d="M 484.62134,34.853599 H 465.2627 l -0.049,71.421061 c -0.33227,2.83789 0.75713,34.25619 35.40005,22.40896 v -14.56528 c 0,0 -16.48262,5.90455 -15.9815,-9.12372 V 75.090588 h 16.82034 V 57.208087 H 484.62136 V 34.853599 Z" />
  </g>
</svg>
